PathFileType	4	(X/Y/Z)	TVC_39_Cal_03_0_static_RCNL2025.trc
DataRate	CameraRate	NumFrames	NumMarkers	Units	OrigDataRate	OrigDataStartFrame	OrigNumFrames
100	100	4	27	mm	100	256	292
Frame#	Time	R_Shoulder			L_Shoulder			C7			J_Notch			R_Elbow			L_Elbow			R_Wrist			L_Wrist			R_Asis			L_Asis			R_Psis			L_Psis			Sacral			Thoracic			Sternum			R_Thigh_Lateral			R_Knee_Lateral			R_Shank_Lateral			R_Ankle_Lateral			R_Heel			R_Toe			L_Thigh_Lateral			L_Knee_Lateral			L_Shank_Lateral			L_Ankle_Lateral			L_Heel			L_Toe		
		X1	Y1	Z1	X2	Y2	Z2	X3	Y3	Z3	X4	Y4	Z4	X5	Y5	Z5	X6	Y6	Z6	X7	Y7	Z7	X8	Y8	Z8	X9	Y9	Z9	X10	Y10	Z10	X11	Y11	Z11	X12	Y12	Z12	X13	Y13	Z13	X14	Y14	Z14	X15	Y15	Z15	X16	Y16	Z16	X17	Y17	Z17	X18	Y18	Z18	X19	Y19	Z19	X20	Y20	Z20	X21	Y21	Z21	X22	Y22	Z22	X23	Y23	Z23	X24	Y24	Z24	X25	Y25	Z25	X26	Y26	Z26	X27	Y27	Z27
256	2.55000000	-198.807495	1479.326294	-3.790161	-170.189041	1470.529663	-389.723022	-236.758606	1552.757202	-208.108002	-93.124161	1421.320190	-196.576645	-167.652710	1143.616699	82.093552	-180.592697	1156.078003	-495.954102	-99.098991	906.795746	12.169217	-153.108170	897.119812	-507.599792	-162.948120	940.819580	-38.349857	-124.425133	940.887878	-330.686401	-349.142670	986.761963	-150.810104	-334.581512	981.414185	-257.514008	-341.862091	984.088074	-204.162056	-334.294586	1226.151367	-210.744858	-55.982365	1260.930542	-177.305511	-225.723816	747.208740	37.103058	-222.911865	460.127686	-17.444777	-266.872986	305.273285	33.210129	-270.643616	78.080444	-58.769081	-311.565887	60.344223	-112.775131	-123.791847	46.899517	-49.575573	-201.321533	699.027527	-413.541992	-230.735260	473.181366	-352.600861	-248.843506	341.375641	-393.115845	-261.363373	75.346992	-300.051941	-299.094635	57.777214	-238.934357	-117.400475	42.603214	-319.309174
257	2.56000000	-198.753937	1479.461426	-3.715977	-170.201309	1470.511841	-389.467529	-236.624298	1552.764648	-208.110291	-92.904457	1421.394531	-196.468140	-167.474503	1143.753662	82.253883	-180.467117	1156.078369	-495.994232	-98.343262	907.135468	12.401634	-152.904251	897.172424	-507.467499	-162.876816	940.811462	-38.259598	-124.347359	940.929810	-330.589355	-349.188263	986.847351	-150.637543	-334.563141	981.480896	-257.634216	-341.875702	984.164124	-204.135880	-334.238220	1226.189087	-210.690140	-55.819511	1260.987305	-177.284760	-225.791489	747.240601	37.184597	-222.857056	460.230530	-17.390932	-266.784027	305.406555	33.316151	-270.684875	78.091423	-58.766277	-311.525269	60.335236	-112.770149	-123.780396	46.905106	-49.526810	-201.609253	698.377441	-413.810120	-230.715286	473.166779	-352.573669	-248.738602	341.388458	-393.072418	-261.335815	75.295013	-300.068848	-299.110657	57.774940	-238.900543	-117.465561	42.415585	-319.274536
258	2.57000000	-198.620850	1479.472412	-3.677588	-170.086090	1470.498169	-389.502716	-236.559113	1552.769165	-208.043304	-92.845078	1421.405151	-196.450287	-167.207809	1143.688354	82.252930	-180.281815	1156.097534	-495.990723	-98.001976	907.221649	12.513193	-152.715530	897.182587	-507.339874	-162.788773	940.838257	-38.210018	-124.330956	940.910645	-330.547485	-348.961670	986.667725	-150.630859	-334.419067	981.460876	-257.592468	-341.690369	984.064301	-204.111664	-334.099274	1226.183228	-210.639465	-55.854874	1260.974365	-177.638000	-225.434189	747.273682	36.861340	-222.770676	460.264496	-17.430016	-266.825775	305.281219	33.324177	-270.785553	78.149704	-58.660908	-311.583557	60.294765	-112.764809	-123.848587	46.930695	-49.516430	-201.595398	698.344788	-413.791199	-230.726654	473.176453	-352.562103	-248.712448	341.418060	-393.052338	-261.394470	75.242279	-300.048645	-299.116913	57.736698	-238.931793	-117.376724	42.939045	-319.784485
259	2.58000000	-198.420334	1479.447144	-3.591535	-169.976791	1470.575928	-389.553162	-236.508942	1552.757080	-207.999329	-92.870285	1421.374268	-196.410080	-167.128418	1143.809570	82.412949	-180.145554	1156.129272	-495.848633	-98.115829	907.047791	12.585245	-152.528786	897.192535	-507.199142	-162.646347	940.799927	-38.191334	-124.263763	940.960083	-330.579529	-348.664398	986.598572	-150.699799	-334.442291	981.501892	-257.460754	-341.553345	984.050232	-204.080276	-334.034027	1226.147217	-210.569717	-55.686024	1261.014893	-177.229736	-225.429276	747.135559	37.032188	-222.702759	460.243805	-17.360735	-266.844574	305.244110	33.293350	-270.729980	78.117439	-58.589424	-311.577484	60.373333	-112.649078	-123.845741	46.937729	-49.542805	-201.353378	698.805115	-413.473969	-230.707596	473.205566	-352.467438	-248.490356	341.655182	-392.991699	-261.307343	75.321739	-300.052917	-299.114319	57.852917	-238.903244	-117.289948	43.124767	-319.834778
